<?xml version="1.0" standalone="no"?>
<!DOCTYPE svg PUBLIC "-//W3C//DTD SVG 1.1//EN" "http://www.w3.org/Graphics/SVG/1.1/DTD/svg11.dtd" >
<svg>
<metadata>
Created by FontForge 20090622 at Tue Jun 19 05:44:06 2018
 By deploy user
Copyright (c) 1990 Adobe Systems Incorporated.  All Rights Reserved.Helvetica is a trademark of Linotype AG and/or its subsidiaries.
</metadata>
<defs>
<font id="HelveticaNeueLT-BoldExt" horiz-adv-x="778" >
  <font-face 
    font-family="HelveticaNeue LT 53 Ex"
    font-weight="700"
    font-stretch="normal"
    units-per-em="1000"
    panose-1="0 0 7 0 0 0 0 0 0 0"
    ascent="800"
    descent="-200"
    x-height="536"
    cap-height="714"
    bbox="-145 -213 1163 984"
    underline-thickness="50"
    underline-position="-75"
    unicode-range="U+0001-U+E009"
  />
<missing-glyph horiz-adv-x="500" 
d="M63 0v789h375v-789h-375zM125 63h250v664h-250v-664z" />
    <glyph glyph-name=".notdef" horiz-adv-x="500" 
d="M63 0v789h375v-789h-375zM125 63h250v664h-250v-664z" />
    <glyph glyph-name=".notdef" unicode="&#x201f;" horiz-adv-x="500" 
d="M63 0v789h375v-789h-375zM125 63h250v664h-250v-664z" />
    <glyph glyph-name=".notdef" unicode="&#x201b;" horiz-adv-x="500" 
d="M63 0v789h375v-789h-375zM125 63h250v664h-250v-664z" />
    <glyph glyph-name=".notdef" horiz-adv-x="500" 
d="M63 0v789h375v-789h-375zM125 63h250v664h-250v-664z" />
    <glyph glyph-name=".notdef" horiz-adv-x="500" 
d="M63 0v789h375v-789h-375zM125 63h250v664h-250v-664z" />
    <glyph glyph-name=".notdef" horiz-adv-x="500" 
d="M63 0v789h375v-789h-375zM125 63h250v664h-250v-664z" />
    <glyph glyph-name=".notdef" horiz-adv-x="500" 
d="M63 0v789h375v-789h-375zM125 63h250v664h-250v-664z" />
    <glyph glyph-name=".notdef" horiz-adv-x="500" 
d="M63 0v789h375v-789h-375zM125 63h250v664h-250v-664z" />
    <glyph glyph-name=".notdef" horiz-adv-x="500" 
d="M63 0v789h375v-789h-375zM125 63h250v664h-250v-664z" />
    <glyph glyph-name=".notdef" horiz-adv-x="500" 
d="M63 0v789h375v-789h-375zM125 63h250v664h-250v-664z" />
    <glyph glyph-name=".notdef" horiz-adv-x="500" 
d="M63 0v789h375v-789h-375zM125 63h250v664h-250v-664z" />
    <glyph glyph-name=".notdef" horiz-adv-x="500" 
d="M63 0v789h375v-789h-375zM125 63h250v664h-250v-664z" />
    <glyph glyph-name=".null" horiz-adv-x="0" 
 />
    <glyph glyph-name="nonmarkingreturn" horiz-adv-x="370" 
 />
    <glyph glyph-name="breve" horiz-adv-x="260" 
d="M-77 745h98q5 -61 109 -61t109 61h98q-8 -153 -207 -153t-207 153z" />
    <glyph glyph-name="caron" horiz-adv-x="260" 
d="M390 745l-144 -142h-232l-144 142h188l79 -81l77 81h176z" />
    <glyph glyph-name="dotlessi" horiz-adv-x="296" 
d="M60 0v536h176v-536h-176z" />
    <glyph glyph-name="dotaccent" horiz-adv-x="260" 
d="M42 603v118h176v-118h-176z" />
    <glyph glyph-name="hungarumlaut" horiz-adv-x="260" 
d="M164 603l89 142h215l-144 -142h-160zM-121 603l89 142h215l-144 -142h-160z" />
    <glyph glyph-name="ring" horiz-adv-x="260" 
d="M11 709q0 53 37.5 90t89.5 37q53 0 90 -37t37 -90q0 -52 -37 -89.5t-90 -37.5q-52 0 -89.5 37.5t-37.5 89.5zM73 709q0 -27 19 -46t46 -19t46 19t19 46t-19 46t-46 19t-46 -19t-19 -46z" />
    <glyph glyph-name="ogonek" horiz-adv-x="260" 
d="M324 -137l12 -45q-46 -31 -126 -31q-126 0 -126 87q0 90 128 126h72q-31 -15 -53.5 -44t-22.5 -60q0 -47 56 -47q27 0 60 14z" />
    <glyph glyph-name="space" unicode=" " horiz-adv-x="370" 
 />
    <glyph glyph-name="exclam" unicode="!" horiz-adv-x="370" 
d="M118 231l-30 483h194l-30 -483h-134zM88 0v170h194v-170h-194z" />
    <glyph glyph-name="quotedbl" unicode="&#x22;" horiz-adv-x="592" 
d="M338 361v353h124v-353h-124zM130 361v353h124v-353h-124z" />
    <glyph glyph-name="numbersign" unicode="#" horiz-adv-x="816" 
d="M193 0l25 176h-84v110h99l18 122h-84v110h99l25 176h110l-25 -176h112l25 176h110l-25 -176h84v-110h-99l-18 -122h84v-110h-99l-25 -176h-110l25 176h-112l-25 -176h-110zM455 286l18 122h-112l-18 -122h112z" />
    <glyph glyph-name="dollar" unicode="$" horiz-adv-x="816" 
d="M452 274v-170q107 12 107 91q0 37 -29 55q-22 14 -78 24zM378 437v153q-125 0 -125 -77q0 -37 28 -52q22 -12 97 -24zM378 104v181l-88 14q-99 16 -145 43q-80 48 -80 152q0 111 94 168q81 50 219 52v83h74v-83q278 -22 289 -221h-200q-12 76 -89 91v-159l102 -16
q211 -33 211 -190q0 -230 -313 -239v-107h-74v107q-169 7 -245 63.5t-82 175.5h206q3 -98 121 -115z" />
    <glyph glyph-name="percent" unicode="%" horiz-adv-x="1037" 
d="M38 520q0 194 204 194t204 -194t-204 -194t-204 194zM156 520q0 -108 86 -108t86 108t-86 108t-86 -108zM591 174q0 194 204 194t204 -194t-204 -194t-204 194zM709 174q0 -108 86 -108t86 108t-86 108t-86 -108zM242 -20l454 734h98l-454 -734h-98z" />
    <glyph glyph-name="ampersand" unicode="&#x26;" horiz-adv-x="926" 
d="M543 154l-201 183q-38 -14 -66 -43q-31 -34 -31 -70q0 -59 48 -92q40 -28 95 -28q95 0 155 50zM705 0l-72 68q-121 -88 -271 -88q-137 0 -217 54q-88 60 -88 171q0 80 55 135q50 51 140 74q-38 33 -52 56q-20 32 -20 74q0 89 75 133q62 37 158 37q108 0 175 -39
q72 -43 72 -120q0 -116 -152 -161l154 -142q60 58 87 123l110 -53q-42 -94 -102 -152l185 -170h-237zM350 555q0 -46 64 -93q88 37 88 89q0 27 -24 43t-51 16q-77 0 -77 -55z" />
    <glyph glyph-name="quotesingle" unicode="'" horiz-adv-x="370" 
d="M123 361v353h124v-353h-124z" />
    <glyph glyph-name="parenleft" unicode="(" horiz-adv-x="444" 
d="M393 -190h-123q-90 89 -142 208t-52 244t52 244t142 208h123q-141 -208 -141 -452t141 -452z" />
    <glyph glyph-name="parenright" unicode=")" horiz-adv-x="444" 
d="M174 -190h-123q141 208 141 452t-141 452h123q90 -89 142 -208t52 -244t-52 -244t-142 -208z" />
    <glyph glyph-name="asterisk" unicode="*" horiz-adv-x="464" 
d="M63 380l92 106l-131 43l34 98l125 -49l-6 136h110l-6 -136l125 49l34 -98l-131 -43l92 -106l-81 -62l-88 110l-88 -110z" />
    <glyph glyph-name="plus" unicode="+" horiz-adv-x="600" 
d="M238 0v191h-191v124h191v191h124v-191h191v-124h-191v-191h-124z" />
    <glyph glyph-name="comma" unicode="," horiz-adv-x="370" 
d="M88 0v170h194v-128q0 -200 -194 -225v70q49 13 67.5 38t22.5 75h-90z" />
    <glyph glyph-name="hyphenminus" unicode="-" horiz-adv-x="600" 
d="M47 191v124h506v-124h-506z" />
    <glyph glyph-name="period" unicode="." horiz-adv-x="370" 
d="M88 0v170h194v-170h-194z" />
    <glyph glyph-name="slash" unicode="/" horiz-adv-x="426" 
d="M-2 -20l296 754h134l-295 -754h-135z" />
    <glyph glyph-name="zero" unicode="0" horiz-adv-x="816" 
d="M230 347q0 -104 39 -164q46 -71 139 -71t139 71q39 60 39 164t-39 164q-46 71 -139 71t-139 -71q-39 -60 -39 -164zM42 347q0 175 95.5 270t270.5 95t270.5 -95t95.5 -270q0 -169 -91 -265q-96 -100 -275 -100q-175 0 -270.5 95t-95.5 270z" />
    <glyph glyph-name="one" unicode="1" horiz-adv-x="556" 
d="M247 0v443h-210v124q123 2 168 23q54 24 83 104h141v-694h-182z" />
    <glyph glyph-name="two" unicode="2" horiz-adv-x="816" 
d="M253 136h503v-136h-714q8 180 142 272q55 38 246 103q130 44 130 109q0 44 -35.5 71t-97.5 27q-152 0 -167 -131h-200q12 261 360 261q175 0 265 -73q75 -62 75 -158t-78 -150q-58 -41 -221 -91l-81 -25q-88 -27 -127 -79z" />
    <glyph glyph-name="three" unicode="3" horiz-adv-x="816" 
d="M306 299v124h147q44 0 68 25q21 21 21 51q0 89 -142 89q-123 0 -143 -95h-194q25 219 358 219q164 0 246 -58q75 -52 75 -143q0 -111 -113 -134v-2q64 -13 102.5 -57.5t38.5 -106.5q0 -229 -374 -229q-345 0 -354 245h194q1 -61 57 -91q45 -24 113 -24q158 0 158 98
q0 46 -41 70q-35 19 -87 19h-130z" />
    <glyph glyph-name="four" unicode="4" horiz-adv-x="816" 
d="M479 258v294l-260 -294h260zM479 0v134h-439v131l388 429h221v-436h127v-124h-127v-134h-170z" />
    <glyph glyph-name="five" unicode="5" horiz-adv-x="816" 
d="M71 304l67 390h580v-130h-453l-24 -136q69 42 198 42q132 0 219 -49q107 -62 107 -185q0 -126 -109 -194q-97 -60 -252 -60q-140 0 -233 44q-124 58 -129 181h200q23 -95 160 -95q169 0 169 119q0 66 -63 98q-46 23 -108 23q-96 0 -145 -48h-184z" />
    <glyph glyph-name="six" unicode="6" horiz-adv-x="816" 
d="M757 509h-191q-27 73 -144 73q-178 0 -181 -192q73 69 207 69q135 0 218 -44q108 -58 108 -184q0 -120 -96 -186q-92 -63 -248 -63q-377 0 -377 363q0 367 385 367q122 0 204 -41q104 -52 115 -162zM410 335q-152 1 -152 -113q0 -47 37 -75q44 -35 135 -35q66 0 108 29
t42 80q0 113 -170 114z" />
    <glyph glyph-name="seven" unicode="7" horiz-adv-x="759" 
d="M23 558v136h704v-153q-148 -148 -216 -243q-107 -148 -136 -298h-236q23 155 144 310q79 102 244 248h-504z" />
    <glyph glyph-name="eight" unicode="8" horiz-adv-x="816" 
d="M407 313q-165 0 -165 -100q0 -101 165 -101q167 0 167 101q0 100 -167 100zM408 -18q-160 0 -254 48q-112 57 -112 176q0 63 39 109q37 43 102 60v2q-114 41 -114 145q0 107 117 155q85 35 222 35q136 0 220 -35q115 -48 115 -155q0 -106 -110 -145v-2q65 -17 102 -60
q39 -46 39 -109q0 -119 -112 -176q-94 -48 -254 -48zM407 423q142 0 142 82q0 40 -45 60q-38 17 -97 17q-144 0 -144 -77q0 -82 144 -82z" />
    <glyph glyph-name="nine" unicode="9" horiz-adv-x="816" 
d="M59 185h191q27 -73 144 -73q178 0 181 192q-73 -69 -207 -69q-135 0 -218 44q-108 58 -108 184q0 120 96 186q92 63 248 63q377 0 377 -363q0 -367 -385 -367q-122 0 -204 41q-104 52 -115 162zM406 359q152 -1 152 113q0 47 -37 75q-44 35 -135 35q-66 0 -108 -29
t-42 -80q0 -113 170 -114z" />
    <glyph glyph-name="colon" unicode=":" horiz-adv-x="370" 
d="M88 366v170h194v-170h-194zM88 0v170h194v-170h-194z" />
    <glyph glyph-name="semicolon" unicode=";" horiz-adv-x="370" 
d="M88 0v170h194v-128q0 -200 -194 -225v70q49 13 67.5 38t22.5 75h-90zM88 366v170h194v-170h-194z" />
    <glyph glyph-name="less" unicode="&#x3c;" horiz-adv-x="600" 
d="M47 201v104l506 209v-124l-339 -137l339 -137v-124z" />
    <glyph glyph-name="equal" unicode="=" horiz-adv-x="600" 
d="M47 300v124h506v-124h-506zM47 82v124h506v-124h-506z" />
    <glyph glyph-name="greater" unicode="&#x3e;" horiz-adv-x="600" 
d="M553 305v-104l-506 -209v124l339 137l-339 137v124z" />
    <glyph glyph-name="question" unicode="?" horiz-adv-x="759" 
d="M459 230h-176q0 81 61 131l112 67q61 36 61 85q0 40 -38.5 64.5t-92.5 24.5q-139 0 -150 -128h-188q3 129 104 195q86 57 217 57q158 0 248 -54q94 -57 94 -163q0 -77 -62 -127q-11 -10 -117 -71q-66 -38 -73 -81zM274 0v170h194v-170h-194z" />
    <glyph glyph-name="at" unicode="@" horiz-adv-x="800" 
d="M297 324q0 -36 20.5 -60.5t53.5 -24.5q50 0 85 43t35 92q0 34 -23 57t-55 23q-47 0 -81.5 -42t-34.5 -88zM528 490l13 53h89l-59 -254q-6 -26 -6 -41q0 -21 19 -21q38 0 70 47q37 53 37 130q0 108 -80 175q-76 63 -194 63q-125 0 -204.5 -83t-79.5 -204q0 -123 83 -203
t208 -80q123 0 221 68h90q-111 -160 -314 -160q-167 0 -281 107q-117 108 -117 270q0 160 115 268.5t280 108.5q144 0 249 -84q110 -89 110 -224q0 -141 -102 -226q-79 -65 -151 -65q-59 0 -64 54h-2q-50 -54 -122 -54q-58 0 -102 46q-47 50 -47 127q0 98 59 172
q63 78 159 78q80 0 123 -68z" />
    <glyph glyph-name="A" unicode="A" horiz-adv-x="834" 
d="M529 277l-112 283l-112 -283h224zM639 0l-58 147h-328l-58 -147h-209l314 714h234l314 -714h-209z" />
    <glyph glyph-name="B" unicode="B" horiz-adv-x="889" 
d="M262 306v-170h286q83 0 83 84q0 86 -103 86h-266zM68 0v714h536q87 0 140 -40q61 -48 61 -140q0 -46 -22 -84q-26 -44 -73 -59v-2q59 -10 95 -63q32 -48 32 -110q0 -89 -49 -144q-65 -72 -211 -72h-509zM262 584v-154h270q73 0 73 77t-100 77h-243z" />
    <glyph glyph-name="C" unicode="C" horiz-adv-x="907" 
d="M880 444h-209q-13 75 -71 116q-54 38 -133 38q-123 0 -180 -84q-43 -63 -43 -157t43 -157q57 -84 180 -84q77 0 130 37q61 41 74 121h211q-17 -150 -135 -225q-108 -69 -287 -69q-422 0 -422 377t422 377q386 0 420 -290z" />
    <glyph glyph-name="D" unicode="D" horiz-adv-x="907" 
d="M262 578v-442h216q186 0 186 228q0 214 -204 214h-198zM68 0v714h445q178 0 267 -98q84 -91 84 -259q0 -166 -83 -259q-87 -98 -251 -98h-462z" />
    <glyph glyph-name="E" unicode="E" 
d="M68 0v714h667v-136h-473v-148h449v-130h-449v-164h477v-136h-671z" />
    <glyph glyph-name="F" unicode="F" horiz-adv-x="722" 
d="M68 0v714h638v-136h-444v-156h416v-136h-416v-286h-194z" />
    <glyph glyph-name="G" unicode="G" horiz-adv-x="944" 
d="M520 274v124h364v-398h-98l-26 83q-96 -103 -300 -103q-422 0 -422 377q0 169 110 271q114 106 312 106q375 0 420 -254h-216q-37 118 -182 118q-121 0 -185 -79q-53 -65 -53 -162t53 -162q64 -79 185 -79q180 0 211 158h-173z" />
    <glyph glyph-name="H" unicode="H" horiz-adv-x="926" 
d="M68 0v714h194v-268h402v268h194v-714h-194v310h-402v-310h-194z" />
    <glyph glyph-name="I" unicode="I" horiz-adv-x="330" 
d="M68 0v714h194v-714h-194z" />
    <glyph glyph-name="J" unicode="J" horiz-adv-x="685" 
d="M423 254v460h194v-436q0 -134 -38 -195q-64 -103 -250 -103q-145 0 -222 47q-98 59 -98 199v45h194v-50q0 -51 28.5 -81t76.5 -30q70 0 95 41q20 31 20 103z" />
    <glyph glyph-name="K" unicode="K" horiz-adv-x="870" 
d="M262 407l332 307h261l-328 -287l353 -427h-262l-243 309l-113 -97v-212h-194v714h194v-307z" />
    <glyph glyph-name="L" unicode="L" horiz-adv-x="722" 
d="M68 0v714h194v-572h435v-142h-629z" />
    <glyph glyph-name="M" unicode="M" horiz-adv-x="1130" 
d="M565 200l212 514h285v-714h-188v572h-2l-226 -572h-162l-226 572h-2v-572h-188v714h285z" />
    <glyph glyph-name="N" unicode="N" horiz-adv-x="926" 
d="M670 216v498h188v-714h-211l-389 498h-2v-498h-188v714h225l375 -498h2z" />
    <glyph glyph-name="O" unicode="O" horiz-adv-x="944" 
d="M28 357q0 151 78 244q110 133 366 133t366 -133q78 -93 78 -244t-78 -244q-110 -133 -366 -133t-366 133q-78 93 -78 244zM234 357q0 -97 53 -162q64 -79 185 -79t185 79q53 65 53 162t-53 162q-64 79 -185 79t-185 -79q-53 -65 -53 -162z" />
    <glyph glyph-name="P" unicode="P" horiz-adv-x="833" 
d="M262 584v-199h208q62 0 88 13q42 21 42 85q0 63 -35 85q-25 16 -77 16h-226zM68 0v714h480q138 0 202 -72q50 -57 50 -145q0 -116 -60.5 -179t-176.5 -63h-301v-255h-194z" />
    <glyph glyph-name="Q" unicode="Q" horiz-adv-x="944" 
d="M543 125l-57 50l89 98l84 -74q51 63 51 158q0 97 -53 162q-64 79 -185 79t-185 -79q-53 -65 -53 -162t53 -162q64 -79 185 -79q38 0 71 9zM811 -111l-136 120q-84 -29 -203 -29q-256 0 -366 133q-78 93 -78 244t78 244q110 133 366 133t366 -133q78 -93 78 -244
q0 -185 -116 -282l100 -88z" />
    <glyph glyph-name="R" unicode="R" horiz-adv-x="852" 
d="M262 578v-180h257q37 0 63 20q30 25 30 71q0 89 -103 89h-247zM68 0v714h519q131 0 190 -70q41 -49 41 -124q0 -130 -116 -172v-2q98 -15 98 -191q0 -116 37 -155h-212q-19 35 -19 137q0 125 -103 125h-241v-262h-194z" />
    <glyph glyph-name="S" unicode="S" horiz-adv-x="815" 
d="M766 507h-215q-8 62 -65 86q-39 17 -114 17q-59 0 -95.5 -23.5t-36.5 -60.5q0 -54 82 -67l243 -39q229 -37 229 -200q0 -240 -371 -240q-174 0 -265 39q-136 57 -137 206h218q2 -115 184 -115q153 0 153 89q0 39 -32 57q-25 15 -89 25l-177 27q-114 17 -169 53
q-75 50 -75 149q0 224 354 224q363 0 378 -227z" />
    <glyph glyph-name="T" unicode="T" horiz-adv-x="722" 
d="M264 0v578h-265v136h724v-136h-265v-578h-194z" />
    <glyph glyph-name="U" unicode="U" horiz-adv-x="870" 
d="M60 256v458h194v-410q0 -81 24 -120q40 -68 157 -68t157 68q24 39 24 120v410h194v-458q0 -276 -375 -276t-375 276z" />
    <glyph glyph-name="V" unicode="V" horiz-adv-x="796" 
d="M295 0l-317 714h213l207 -544l207 544h213l-317 -714h-206z" />
    <glyph glyph-name="W" unicode="W" horiz-adv-x="1148" 
d="M223 0l-226 714h194l138 -520h2l146 520h194l146 -520h2l138 520h194l-226 -714h-200l-150 508h-2l-150 -508h-200z" />
    <glyph glyph-name="X" unicode="X" horiz-adv-x="796" 
d="M-17 0l303 368l-278 346h233l157 -222l157 222h233l-278 -346l303 -368h-241l-174 241l-174 -241h-241z" />
    <glyph glyph-name="Y" unicode="Y" 
d="M292 0v249l-316 465h228l185 -311l185 311h228l-316 -465v-249h-194z" />
    <glyph glyph-name="Z" unicode="Z" horiz-adv-x="759" 
d="M16 0v124l472 454h-440v136h695v-124l-472 -454h472v-136h-727z" />
    <glyph glyph-name="bracketleft" unicode="[" horiz-adv-x="444" 
d="M81 -190v904h330v-124h-160v-656h160v-124h-330z" />
    <glyph glyph-name="backslash" unicode="\" horiz-adv-x="426" 
d="M293 -20l-295 754h134l296 -754h-135z" />
    <glyph glyph-name="bracketright" unicode="]" horiz-adv-x="444" 
d="M363 714v-904h-330v124h160v656h-160v124h330z" />
    <glyph glyph-name="asciicircum" unicode="^" horiz-adv-x="600" 
d="M180 309h-124l187 385h114l187 -385h-124l-120 249z" />
    <glyph glyph-name="underscore" unicode="_" horiz-adv-x="500" 
d="M0 -125v50h500v-50h-500z" />
    <glyph glyph-name="grave" unicode="`" horiz-adv-x="260" 
d="M77 603l-144 142h215l89 -142h-160z" />
    <glyph glyph-name="a" unicode="a" horiz-adv-x="741" 
d="M515 217v44q-35 -17 -104 -23l-102 -9q-49 -4 -71 -19.5t-22 -50.5t30.5 -55t80.5 -20q74 0 127 33q61 37 61 100zM232 372h-170q14 111 112 154q70 30 205 30q175 0 248 -53q58 -43 58 -129v-266q0 -63 20 -108h-176q-11 34 -12 57q-77 -77 -251 -77q-238 0 -238 174
q0 150 222 165l187 13q42 3 57 14t15 42q0 64 -138 64q-63 0 -88 -12q-34 -16 -51 -68z" />
    <glyph glyph-name="b" unicode="b" 
d="M230 265q0 -73 50 -116q45 -39 115 -39q71 0 116 39q50 43 50 116t-50 116q-45 39 -116 39q-70 0 -115 -39q-50 -43 -50 -116zM60 0v726h176v-256h2q57 80 206 80q129 0 214 -79.5t85 -208.5q0 -136 -90 -211q-84 -71 -221 -71q-61 0 -103 16q-50 20 -97 71h-2v-67h-170z
" />
    <glyph glyph-name="c" unicode="c" horiz-adv-x="741" 
d="M717 338h-182q-28 94 -146 94q-82 0 -127 -42.5t-45 -121.5t45 -121.5t127 -42.5q59 0 99 29.5t47 79.5h182q-22 -133 -118 -188q-78 -45 -225 -45q-158 0 -245 68q-94 74 -94 220t98 220q90 68 256 68q287 0 328 -218z" />
    <glyph glyph-name="d" unicode="d" 
d="M217 265q0 -73 50 -116q45 -39 116 -39q70 0 116 39q49 43 49 116t-49 116q-46 39 -116 39q-71 0 -116 -39q-50 -43 -50 -116zM548 0v67h-2q-72 -87 -212 -87q-131 0 -212 71q-87 76 -87 211q0 129 85 208.5t214 79.5q149 0 206 -80h2v256h176v-726h-170z" />
    <glyph glyph-name="e" unicode="e" horiz-adv-x="758" 
d="M530 160h188q-72 -180 -334 -180q-166 0 -256 68q-98 74 -98 220t98 220q90 68 256 68q171 0 259 -84q85 -81 85 -235v-16h-516v-2q0 -46 41 -84q49 -45 131 -45q108 0 146 70zM212 325h334v2q0 35 -35 70q-47 49 -131 49q-88 0 -136 -55q-32 -36 -32 -64v-2z" />
    <glyph glyph-name="f" unicode="f" horiz-adv-x="426" 
d="M117 0v418h-111v118h111v27q0 106 43 140q40 31 165 31q25 0 111 -2v-110q-60 2 -89 2q-27 0 -39 -9q-15 -12 -15 -46v-33h141v-118h-141v-418h-176z" />
    <glyph glyph-name="g" unicode="g" 
d="M217 279q0 -147 168 -147q169 0 169 147t-169 147q-168 0 -168 -147zM560 471v65h170v-493q0 -135 -88 -197q-83 -59 -256 -59q-134 0 -207 28q-110 41 -122 149h188q9 -35 39 -50q35 -17 108 -17q76 0 114 28q48 36 48 125v43q-71 -79 -214 -79q-149 0 -231 82
q-74 74 -74 186q0 118 76 189q84 79 243 79q140 0 204 -79h2z" />
    <glyph glyph-name="h" unicode="h" horiz-adv-x="741" 
d="M60 0v726h176v-268h2q21 36 78 63q62 29 135 29q89 0 149 -37q81 -50 81 -156v-357h-176v304q0 110 -118 110q-151 0 -151 -155v-259h-176z" />
    <glyph glyph-name="i" unicode="i" horiz-adv-x="296" 
d="M60 0v536h176v-536h-176zM60 602v124h176v-124h-176z" />
    <glyph glyph-name="j" unicode="j" horiz-adv-x="296" 
d="M60 18v518h176v-532q0 -109 -31 -150q-41 -53 -164 -53q-20 0 -47 2q-36 2 -43 2v130q36 -4 45 -4q44 0 56 25q8 15 8 62zM60 602v124h176v-124h-176z" />
    <glyph glyph-name="k" unicode="k" horiz-adv-x="722" 
d="M60 0v726h176v-390l233 200h245l-255 -204l271 -332h-233l-175 223l-86 -69v-154h-176z" />
    <glyph glyph-name="l" unicode="l" horiz-adv-x="296" 
d="M60 0v726h176v-726h-176z" />
    <glyph glyph-name="m" unicode="m" horiz-adv-x="1130" 
d="M894 0v322q0 92 -108 92q-58 0 -94 -30q-39 -34 -39 -94v-290h-176v322q0 92 -106 92q-59 0 -96 -30q-39 -34 -39 -94v-290h-176v536h170v-78h2q26 37 83 63q63 29 136 29q140 0 185 -101q77 101 221 101q92 0 147 -41q66 -48 66 -146v-363h-176z" />
    <glyph glyph-name="n" unicode="n" horiz-adv-x="741" 
d="M505 0v304q0 110 -118 110q-151 0 -151 -155v-259h-176v536h170v-78h2q26 37 83 63q63 29 136 29q89 0 149 -37q81 -50 81 -156v-357h-176z" />
    <glyph glyph-name="o" unicode="o" 
d="M35 268q0 146 98 220q90 68 256 68t257 -68q97 -74 97 -220t-97 -220q-91 -68 -257 -68t-256 68q-98 74 -98 220zM217 268q0 -79 45 -121.5t127 -42.5t127 42.5t45 121.5t-45 121.5t-127 42.5t-127 -42.5t-45 -121.5z" />
    <glyph glyph-name="p" unicode="p" 
d="M230 265q0 -73 50 -116q45 -39 115 -39q71 0 116 39q50 43 50 116t-50 116q-45 39 -116 39q-70 0 -115 -39q-50 -43 -50 -116zM60 -199v735h170v-73h2q47 51 97 71q42 16 103 16q137 0 221 -70q90 -76 90 -212q0 -129 -85 -208.5t-214 -79.5q-149 0 -206 80h-2v-259h-176
z" />
    <glyph glyph-name="q" unicode="q" 
d="M217 265q0 -73 50 -116q45 -39 116 -39q70 0 116 39q49 43 49 116t-49 116q-46 39 -116 39q-71 0 -116 -39q-50 -43 -50 -116zM548 463v73h170v-735h-176v259h-2q-57 -80 -206 -80q-129 0 -214 79.5t-85 208.5q0 136 90 212q84 70 221 70q61 0 103 -16q50 -20 97 -71h2z
" />
    <glyph glyph-name="r" unicode="r" horiz-adv-x="519" 
d="M60 0v536h170v-105h2q51 65 94 90q48 29 120 29q39 0 64 -5v-165q-57 16 -97 16q-177 0 -177 -165v-231h-176z" />
    <glyph glyph-name="s" unicode="s" horiz-adv-x="704" 
d="M29 166h194q13 -76 131 -76q127 0 127 58q0 23 -19 34.5t-81 19.5l-160 22q-90 12 -130 44q-46 35 -46 108q0 180 293 180q171 0 247 -53q60 -42 70 -128h-194q-13 71 -119 71q-115 0 -115 -57q0 -21 16 -31q20 -13 73 -19l122 -13q130 -14 186 -55q51 -38 51 -110
q0 -107 -108 -150q-78 -31 -223 -31q-302 0 -315 186z" />
    <glyph glyph-name="t" unicode="t" horiz-adv-x="444" 
d="M117 536v166h176v-166h142v-118h-142v-250q0 -32 12.5 -44t46.5 -12q30 0 86 4v-118q-82 -10 -138 -10q-115 0 -154 43q-29 32 -29 116v271h-111v118h111z" />
    <glyph glyph-name="u" unicode="u" horiz-adv-x="741" 
d="M511 0v72h-2q-26 -37 -83 -63q-63 -29 -136 -29q-89 0 -149 37q-81 50 -81 156v363h176v-310q0 -110 120 -110q149 0 149 152v268h176v-536h-170z" />
    <glyph glyph-name="v" unicode="v" horiz-adv-x="668" 
d="M234 0l-246 536h200l146 -376l146 376h200l-246 -536h-200z" />
    <glyph glyph-name="w" unicode="w" horiz-adv-x="1056" 
d="M200 0l-200 536h194l123 -366h2l124 366h170l124 -366h2l123 366h194l-200 -536h-211l-116 346h-2l-116 -346h-211z" />
    <glyph glyph-name="x" unicode="x" horiz-adv-x="722" 
d="M360 372l127 164h219l-227 -258l246 -278h-229l-138 177l-136 -177h-225l244 278l-225 258h221z" />
    <glyph glyph-name="y" unicode="y" horiz-adv-x="648" 
d="M476 536h188l-293 -624q-31 -66 -71.5 -88.5t-116.5 -22.5q-42 0 -124 4v124q50 -4 76 -4q58 0 83 55l18 39l-252 517h191l153 -354z" />
    <glyph glyph-name="z" unicode="z" horiz-adv-x="648" 
d="M26 0v110l339 296h-320v130h565v-110l-339 -296h351v-130h-596z" />
    <glyph glyph-name="braceleft" unicode="{" horiz-adv-x="444" 
d="M301 531v-157q0 -45 -27 -75t-72 -36v-2q99 -13 99 -118v-150q0 -73 54 -73h40v-110h-121q-143 0 -143 135v184q0 38 -27 64t-66 26v86q37 0 65 23.5t28 59.5v191q0 135 143 135h121v-110h-40q-54 0 -54 -73z" />
    <glyph glyph-name="bar" unicode="|" horiz-adv-x="222" 
d="M49 -20v754h124v-754h-124z" />
    <glyph glyph-name="braceright" unicode="}" horiz-adv-x="444" 
d="M143 -7v157q0 45 27 75t72 36v2q-99 13 -99 118v150q0 73 -54 73h-40v110h121q143 0 143 -135v-184q0 -38 27 -64t66 -26v-86q-37 0 -65 -23.5t-28 -59.5v-191q0 -135 -143 -135h-121v110h40q54 0 54 73z" />
    <glyph glyph-name="asciitilde" unicode="~" horiz-adv-x="600" 
d="M495 349v0l36 -106q-46 -86 -123 -86q-50 0 -117 34t-96 34q-27 0 -55 -25q-25 -21 -35 -43l-36 106q46 86 123 86q50 0 117 -34t96 -34q27 0 56 25q24 21 34 43z" />
    <glyph glyph-name="uni20AC" horiz-adv-x="816" 
d="M782 637q-62 38 -131 54t-141 16q-66 0 -125 -13.5t-107.5 -43t-84 -76.5t-54.5 -114h-50l-52 -90h90q-1 -7 -1 -13v-13v-14q0 -6 1 -13h-40l-52 -90h104q18 -71 54.5 -119t86.5 -76.5t111 -40t129 -11.5q58 0 115 10t111 34v158q-51 -29 -107.5 -49.5t-116.5 -20.5
q-64 0 -111.5 27.5t-73.5 87.5h208l52 90h-279q-1 7 -1 14v14v12q0 7 1 13h304l52 90h-338q26 61 72.5 89t111.5 28q27 0 50.5 -5t44.5 -14t41.5 -21.5t42.5 -27.5z" />
    <glyph glyph-name="uni20AC" unicode="&#x20ac;" horiz-adv-x="816" 
d="M782 637q-62 38 -131 54t-141 16q-66 0 -125 -13.5t-107.5 -43t-84 -76.5t-54.5 -114h-50l-52 -90h90q-1 -7 -1 -13v-13v-14q0 -6 1 -13h-40l-52 -90h104q18 -71 54.5 -119t86.5 -76.5t111 -40t129 -11.5q58 0 115 10t111 34v158q-51 -29 -107.5 -49.5t-116.5 -20.5
q-64 0 -111.5 27.5t-73.5 87.5h208l52 90h-279q-1 7 -1 14v14v12q0 7 1 13h304l52 90h-338q26 61 72.5 89t111.5 28q27 0 50.5 -5t44.5 -14t41.5 -21.5t42.5 -27.5z" />
    <glyph glyph-name="quotesinglbase" unicode="&#x201a;" horiz-adv-x="370" 
d="M88 0v170h194v-128q0 -200 -194 -225v70q49 13 67.5 38t22.5 75h-90z" />
    <glyph glyph-name="florin" unicode="&#x192;" horiz-adv-x="816" 
d="M189 304l19 92h121l35 173q16 81 74 116q48 29 137 29q36 0 118 -8l-24 -115q-30 5 -59 5q-40 0 -58 -24q-15 -20 -27 -78l-20 -98h122l-20 -92h-121l-65 -322q-22 -108 -71 -144.5t-169 -36.5q-38 0 -98 10l23 112q25 -4 48 -4q44 0 64.5 16t28.5 56l63 313h-121z" />
    <glyph glyph-name="quotedblbase" unicode="&#x201e;" horiz-adv-x="592" 
d="M338 0v170h194v-128q0 -200 -194 -225v70q49 13 67.5 38t22.5 75h-90zM60 0v170h194v-128q0 -200 -194 -225v70q49 13 67.5 38t22.5 75h-90z" />
    <glyph glyph-name="ellipsis" unicode="&#x2026;" horiz-adv-x="1000" 
d="M70 0v170h194v-170h-194zM403 0v170h194v-170h-194zM736 0v170h194v-170h-194z" />
    <glyph glyph-name="dagger" unicode="&#x2020;" horiz-adv-x="816" 
d="M317 -199v567h-240v136h240v210h182v-210h240v-136h-240v-567h-182z" />
    <glyph glyph-name="daggerdbl" unicode="&#x2021;" horiz-adv-x="816" 
d="M320 -199v205h-243v124h243v255h-243v124h243v205h176v-205h243v-124h-243v-255h243v-124h-243v-205h-176z" />
    <glyph glyph-name="circumflex" unicode="&#x2c6;" horiz-adv-x="260" 
d="M-130 603l144 142h232l144 -142h-188l-79 81l-77 -81h-176z" />
    <glyph glyph-name="perthousand" unicode="&#x2030;" horiz-adv-x="1167" 
d="M4 534q0 180 173 180t173 -180t-173 -180t-173 180zM108 534q0 -59 14 -83q15 -29 55 -29t56 29q13 24 13 83t-13 83q-16 29 -56 29t-55 -29q-14 -24 -14 -83zM431 160q0 180 173 180t173 -180t-173 -180t-173 180zM535 160q0 -59 14 -83q15 -29 55 -29t56 29
q13 24 13 83t-13 83q-16 29 -56 29t-55 -29q-14 -24 -14 -83zM817 160q0 180 173 180t173 -180t-173 -180t-173 180zM921 160q0 -59 14 -83q15 -29 55 -29t56 29q13 24 13 83t-13 83q-16 29 -56 29t-55 -29q-14 -24 -14 -83zM114 -20l454 734h98l-454 -734h-98z" />
    <glyph glyph-name="Scaron" unicode="&#x160;" horiz-adv-x="815" 
d="M766 507h-215q-8 62 -65 86q-39 17 -114 17q-59 0 -95.5 -23.5t-36.5 -60.5q0 -54 82 -67l243 -39q229 -37 229 -200q0 -240 -371 -240q-174 0 -265 39q-136 57 -137 206h218q2 -115 184 -115q153 0 153 89q0 39 -32 57q-25 15 -89 25l-177 27q-114 17 -169 53
q-75 50 -75 149q0 224 354 224q363 0 378 -227zM668 903l-144 -142h-232l-144 142h188l79 -81l77 81h176z" />
    <glyph glyph-name="guilsinglleft" unicode="&#x2039;" horiz-adv-x="370" 
d="M83 207v158l194 142v-133l-120 -88l120 -88v-133z" />
    <glyph glyph-name="OE" unicode="&#x152;" horiz-adv-x="1167" 
d="M575 0v61q-84 -81 -208 -81q-152 0 -244 109q-88 104 -88 264q0 165 88 271q92 110 244 110q136 0 208 -76v56h548v-136h-378v-148h365v-130h-365v-164h383v-136h-553zM575 231v261q0 25 -39 61q-50 45 -125 45q-81 0 -131 -64q-51 -67 -51 -178q0 -126 59 -189
q48 -51 127 -51q69 0 119 47q41 39 41 68z" />
    <glyph glyph-name="quoteleft" unicode="&#x2018;" horiz-adv-x="370" 
d="M88 361v128q0 200 194 225v-70q-49 -13 -67.5 -38t-22.5 -75h90v-170h-194z" />
    <glyph glyph-name="quoteright" unicode="&#x2019;" horiz-adv-x="370" 
d="M88 544v170h194v-128q0 -200 -194 -225v70q49 13 67.5 38t22.5 75h-90z" />
    <glyph glyph-name="quotedblleft" unicode="&#x201c;" horiz-adv-x="592" 
d="M60 361v128q0 200 194 225v-70q-49 -13 -67.5 -38t-22.5 -75h90v-170h-194zM338 361v128q0 200 194 225v-70q-49 -13 -67.5 -38t-22.5 -75h90v-170h-194z" />
    <glyph glyph-name="quotedblright" unicode="&#x201d;" horiz-adv-x="592" 
d="M338 544v170h194v-128q0 -200 -194 -225v70q49 13 67.5 38t22.5 75h-90zM60 544v170h194v-128q0 -200 -194 -225v70q49 13 67.5 38t22.5 75h-90z" />
    <glyph glyph-name="bullet" unicode="&#x2022;" horiz-adv-x="500" 
d="M71 357q0 74 52.5 126.5t126.5 52.5t126.5 -52.5t52.5 -126.5t-52.5 -126.5t-126.5 -52.5t-126.5 52.5t-52.5 126.5z" />
    <glyph glyph-name="endash" unicode="&#x2013;" horiz-adv-x="500" 
d="M0 224v124h500v-124h-500z" />
    <glyph glyph-name="emdash" unicode="&#x2014;" horiz-adv-x="1000" 
d="M0 224v124h1000v-124h-1000z" />
    <glyph glyph-name="tilde" unicode="&#x2dc;" horiz-adv-x="260" 
d="M-30 607v0h-86q40 138 143 138q25 0 106 -22t112 -22q43 0 49 39h82q-18 -137 -130 -137q-31 0 -120.5 25t-106.5 25q-34 0 -49 -46z" />
    <glyph glyph-name="trademark" unicode="&#x2122;" horiz-adv-x="1000" 
d="M856 302v282h-2l-93 -282h-98l-93 282h-2v-282h-110v412h170l83 -250h2l83 250h170v-412h-110zM157 302v314h-107v98h338v-98h-107v-314h-124z" />
    <glyph glyph-name="scaron" unicode="&#x161;" horiz-adv-x="704" 
d="M29 166h194q13 -76 131 -76q127 0 127 58q0 23 -19 34.5t-81 19.5l-160 22q-90 12 -130 44q-46 35 -46 108q0 180 293 180q171 0 247 -53q60 -42 70 -128h-194q-13 71 -119 71q-115 0 -115 -57q0 -21 16 -31q20 -13 73 -19l122 -13q130 -14 186 -55q51 -38 51 -110
q0 -107 -108 -150q-78 -31 -223 -31q-302 0 -315 186zM612 745l-144 -142h-232l-144 142h188l79 -81l77 81h176z" />
    <glyph glyph-name="guilsinglright" unicode="&#x203a;" horiz-adv-x="370" 
d="M93 65v133l120 88l-120 88v133l194 -142v-158z" />
    <glyph glyph-name="oe" unicode="&#x153;" horiz-adv-x="1148" 
d="M653 319h295q-24 127 -149 127q-117 0 -146 -127zM1116 221h-463q11 -131 153 -131q46 0 74.5 14t54.5 51h176q-79 -175 -301 -175q-150 0 -231 90q-82 -91 -234 -90q-166 2 -247 89q-68 73 -68 195q0 117 68 195q84 97 254 97q136 0 230 -88q80 88 218 88q145 0 234 -85
q84 -81 84 -199q0 -34 -2 -51zM511 266q0 73 -35 117q-40 49 -116 49q-78 0 -118 -49q-36 -44 -36 -117q0 -74 36 -118q40 -50 118 -50q76 0 116 50q35 44 35 118z" />
    <glyph glyph-name="Ydieresis" unicode="&#x178;" 
d="M292 0v249l-316 465h228l185 -311l185 311h228l-316 -465v-249h-194zM158 761v118h176v-118h-176zM444 761v118h176v-118h-176z" />
    <glyph glyph-name="nonbreakingspace" unicode="&#xa0;" horiz-adv-x="370" 
 />
    <glyph glyph-name="exclamdown" unicode="&#xa1;" horiz-adv-x="370" 
d="M88 -178l30 483h134l30 -483h-194zM88 366v170h194v-170h-194z" />
    <glyph glyph-name="cent" unicode="&#xa2;" horiz-adv-x="816" 
d="M382 104v328q-133 -20 -133 -164q0 -69 34.5 -112t98.5 -52zM382 -126v106q-148 8 -229 77q-86 74 -86 211t86 211q81 69 229 77v85h62v-85q266 -10 305 -218h-182q-25 86 -123 94v-328q51 7 84 36t39 73h182q-21 -126 -107 -182q-72 -48 -198 -51v-106h-62z" />
    <glyph glyph-name="sterling" unicode="&#xa3;" horiz-adv-x="816" 
d="M61 304v92h57q-26 55 -26 97q0 221 338 221q172 0 255 -77q63 -59 63 -146v-28h-200q-4 115 -123 115q-66 0 -99.5 -29t-33.5 -71q0 -25 20 -82h178v-92h-164q2 -16 2 -27q0 -81 -79 -142v-2q54 21 105 23q26 1 91.5 -11t106.5 -11q103 2 160 51l52 -138
q-88 -67 -212 -67q-46 0 -136 20t-147 20q-78 0 -144 -40l-73 127q100 62 100 142q0 21 -8 55h-83z" />
    <glyph glyph-name="currency" unicode="&#xa4;" horiz-adv-x="816" 
d="M408 494q-61 0 -101 -41.5t-40 -105.5t40 -105.5t101 -41.5t101 41.5t40 105.5t-40 105.5t-101 41.5zM130 140l58 58q-45 66 -45 149q0 82 45 149l-58 58l71 71l58 -58q67 45 149 45t149 -45l58 58l71 -71l-58 -58q45 -67 45 -149q0 -84 -46 -148l59 -59l-71 -71l-59 59
q-64 -46 -148 -46t-148 46l-59 -59z" />
    <glyph glyph-name="yen" unicode="&#xa5;" horiz-adv-x="816" 
d="M308 0v126h-200v92h200v41l-27 39h-173v92h110l-208 304h225l172 -290h2l176 290h221l-213 -304h109v-92h-173l-27 -39v-41h200v-92h-200v-126h-194z" />
    <glyph glyph-name="brokenbar" unicode="&#xa6;" horiz-adv-x="222" 
d="M49 -20v275h124v-275h-124zM49 459v275h124v-275h-124z" />
    <glyph glyph-name="section" unicode="&#xa7;" horiz-adv-x="816" 
d="M82 12h188q10 -93 155 -93q57 0 87 17t30 44q0 33 -33 49q-37 18 -178 51q-150 35 -217 82q-77 53 -77 141q0 120 104 153q-40 32 -40 95q0 95 90 144q73 39 185 39q138 0 215 -35q106 -48 119 -167h-188q-2 38 -22 56q-30 28 -112 28q-105 0 -105 -65q0 -25 20 -37
q15 -9 64 -22l201 -52q211 -55 211 -186q0 -124 -97 -157q48 -41 48 -105q0 -85 -81 -136q-85 -55 -236 -55q-315 0 -331 211zM518 303l-275 83q-42 -29 -42 -66q0 -38 43 -61q18 -11 78 -28l257 -75q36 34 36 67q0 34 -32 54q-19 12 -65 26z" />
    <glyph glyph-name="dieresis" unicode="&#xa8;" horiz-adv-x="260" 
d="M-101 603v118h176v-118h-176zM185 603v118h176v-118h-176z" />
    <glyph glyph-name="copyright" unicode="&#xa9;" horiz-adv-x="800" 
d="M495 297h104q-11 -74 -63.5 -116.5t-120.5 -42.5q-97 0 -155 63t-58 159q0 98 56 160t154 62q70 0 121 -41t61 -115h-98q-17 64 -89 64q-50 0 -78.5 -36.5t-28.5 -93.5q0 -54 30 -92t76 -38q36 0 60.5 18.5t28.5 48.5zM23 357q0 156 110.5 266.5t266.5 110.5
t266.5 -110.5t110.5 -266.5t-110.5 -266.5t-266.5 -110.5t-266.5 110.5t-110.5 266.5zM133 357q0 -127 73.5 -203t193.5 -76t193.5 76t73.5 203t-73.5 203t-193.5 76t-193.5 -76t-73.5 -203z" />
    <glyph glyph-name="ordfeminine" unicode="&#xaa;" horiz-adv-x="482" 
d="M324 514v22q-23 -12 -73 -17l-51 -5q-55 -5 -55 -34q0 -16 19 -27t47 -11q41 0 75 18q38 21 38 54zM448 609v-186q0 -22 13 -43h-118q-10 16 -10 40h-2q-41 -52 -155 -52q-155 0 -155 103q0 52 46 76q32 16 98 21l122 9q43 3 43 28q0 35 -86 35q-36 0 -52 -6
q-21 -9 -33 -34h-118q9 70 76 96q44 18 132 18q199 0 199 -105z" />
    <glyph glyph-name="guillemotleft" unicode="&#xab;" horiz-adv-x="611" 
d="M324 207v158l194 142v-133l-120 -88l120 -88v-133zM83 207v158l194 142v-133l-120 -88l120 -88v-133z" />
    <glyph glyph-name="logicalnot" unicode="&#xac;" horiz-adv-x="600" 
d="M429 98v202h-382v124h506v-326h-124z" />
    <glyph glyph-name="uni00AD" unicode="&#xad;" horiz-adv-x="600" 
d="M47 191v124h506v-124h-506z" />
    <glyph glyph-name="registered" unicode="&#xae;" horiz-adv-x="800" 
d="M250 150v413h161q159 0 159 -129q0 -51 -29 -81t-76 -35l103 -168h-98l-93 164h-35v-164h-92zM342 489v-101h68q68 0 68 51q0 50 -77 50h-59zM133 357q0 -127 73.5 -203t193.5 -76t193.5 76t73.5 203t-73.5 203t-193.5 76t-193.5 -76t-73.5 -203zM23 357
q0 156 110.5 266.5t266.5 110.5t266.5 -110.5t110.5 -266.5t-110.5 -266.5t-266.5 -110.5t-266.5 110.5t-110.5 266.5z" />
    <glyph glyph-name="macron" unicode="&#xaf;" horiz-adv-x="260" 
d="M-111 624v104h482v-104h-482z" />
    <glyph glyph-name="degree" unicode="&#xb0;" horiz-adv-x="400" 
d="M52 566q0 62 43.5 105t104.5 43q62 0 105 -43t43 -105q0 -61 -43 -104.5t-105 -43.5q-61 0 -104.5 43.5t-43.5 104.5zM126 566q0 -31 21.5 -52.5t52.5 -21.5t52.5 21.5t21.5 52.5t-21.5 52.5t-52.5 21.5t-52.5 -21.5t-21.5 -52.5z" />
    <glyph glyph-name="plusminus" unicode="&#xb1;" horiz-adv-x="600" 
d="M238 398v108h124v-108h191v-124h-191v-108h-124v108h-191v124h191zM47 0v124h506v-124h-506z" />
    <glyph glyph-name="twosuperior" unicode="&#xb2;" horiz-adv-x="530" 
d="M505 286h-480q6 108 92 163q38 25 157 60q83 25 83 61q0 25 -21.5 41.5t-55.5 16.5q-33 0 -58 -17q-31 -21 -36 -61h-148q8 164 243 164q115 0 175 -43q49 -36 49 -89q0 -96 -164 -137q-124 -31 -154 -61h318v-98z" />
    <glyph glyph-name="threesuperior" unicode="&#xb3;" horiz-adv-x="530" 
d="M195 462v86h85q58 0 58 38q0 42 -78 42q-27 0 -51 -12.5t-31 -32.5h-139q16 131 236 131q211 0 211 -121q0 -66 -73 -81v-2q42 -7 67 -33.5t25 -62.5q0 -140 -250 -140q-223 0 -230 147h142q1 -32 33 -48q27 -13 66 -13q40 0 65.5 15t25.5 38q0 49 -84 49h-78z" />
    <glyph glyph-name="acute" unicode="&#xb4;" horiz-adv-x="260" 
d="M23 603l89 142h215l-144 -142h-160z" />
    <glyph glyph-name="mu" unicode="&#xb5;" horiz-adv-x="741" 
d="M681 536v-536h-170v72h-2q-28 -48 -87 -73q-45 -19 -90 -19q-62 0 -96 29v-208h-176v735h176v-310q0 -110 120 -110q149 0 149 152v268h176z" />
    <glyph glyph-name="paragraph" unicode="&#xb6;" horiz-adv-x="620" 
d="M230 -179v496q-112 0 -170.5 50t-58.5 145q0 113 69 161q59 41 181 41h331v-893h-130v795h-92v-795h-130z" />
    <glyph glyph-name="periodcentered" unicode="&#xb7;" horiz-adv-x="370" 
d="M82 275q0 42 31 72.5t72 30.5t72 -30.5t31 -72.5t-31 -72.5t-72 -30.5t-72 30.5t-31 72.5z" />
    <glyph glyph-name="periodcentered" unicode="&#x2219;" horiz-adv-x="370" 
d="M82 275q0 42 31 72.5t72 30.5t72 -30.5t31 -72.5t-31 -72.5t-72 -30.5t-72 30.5t-31 72.5z" />
    <glyph glyph-name="cedilla" unicode="&#xb8;" horiz-adv-x="260" 
d="M39 -83l54 83h63l-30 -47q20 4 44 4q39 0 66 -19q29 -22 29 -61q0 -50 -50 -73q-37 -17 -92 -17q-83 0 -128 14l17 52q35 -10 81 -10q48 0 48 34q0 31 -35 31q-20 0 -47 -9z" />
    <glyph glyph-name="onesuperior" unicode="&#xb9;" horiz-adv-x="361" 
d="M152 286v252h-134v92q78 2 107 13q34 14 53 59h110v-416h-136z" />
    <glyph glyph-name="ordmasculine" unicode="&#xba;" horiz-adv-x="506" 
d="M23 541q0 173 230 173t230 -173t-230 -173t-230 173zM147 542q0 -43 28.5 -68.5t77.5 -25.5t77.5 25.5t28.5 68.5t-28.5 67.5t-77.5 24.5t-77.5 -24.5t-28.5 -67.5z" />
    <glyph glyph-name="guillemotright" unicode="&#xbb;" horiz-adv-x="611" 
d="M93 65v133l120 88l-120 88v133l194 -142v-158zM334 65v133l120 88l-120 88v133l194 -142v-158z" />
    <glyph glyph-name="onequarter" unicode="&#xbc;" horiz-adv-x="1222" 
d="M932 167v163l-147 -163h147zM932 0v81h-277v82l252 253h149v-249h82v-86h-82v-81h-124zM288 -20l362 734h95l-362 -734h-95zM190 286v252h-134v92q78 2 107 13q34 14 53 59h110v-416h-136z" />
    <glyph glyph-name="onehalf" unicode="&#xbd;" horiz-adv-x="1222" 
d="M288 -20l362 734h95l-362 -734h-95zM1138 0h-480q6 108 92 163q38 25 157 60q83 25 83 61q0 25 -21.5 41.5t-55.5 16.5q-33 0 -58 -17q-31 -21 -36 -61h-148q8 164 243 164q115 0 175 -43q49 -36 49 -89q0 -96 -164 -137q-124 -31 -154 -61h318v-98zM190 286v252h-134v92
q78 2 107 13q34 14 53 59h110v-416h-136z" />
    <glyph glyph-name="threequarters" unicode="&#xbe;" horiz-adv-x="1222" 
d="M403 -20l362 734h95l-362 -734h-95zM226 462v86h85q58 0 58 38q0 42 -78 42q-27 0 -51 -12.5t-31 -32.5h-139q16 131 236 131q211 0 211 -121q0 -66 -73 -81v-2q42 -7 67 -33.5t25 -62.5q0 -140 -250 -140q-223 0 -230 147h142q1 -32 33 -48q27 -13 66 -13q40 0 65.5 15
t25.5 38q0 49 -84 49h-78zM932 0v81h-277v82l252 253h149v-249h82v-86h-82v-81h-124zM785 167h147v163z" />
    <glyph glyph-name="questiondown" unicode="&#xbf;" horiz-adv-x="759" 
d="M300 306h176q0 -81 -61 -131l-112 -67q-61 -36 -61 -85q0 -40 40 -65q37 -24 91 -24q139 0 150 128h188q-3 -129 -104 -195q-86 -57 -217 -57q-158 0 -248 54q-94 57 -94 163q0 77 62 127q11 10 117 71q66 38 73 81zM291 366v170h194v-170h-194z" />
    <glyph glyph-name="Agrave" unicode="&#xc0;" horiz-adv-x="834" 
d="M529 277l-112 283l-112 -283h224zM639 0l-58 147h-328l-58 -147h-209l314 714h234l314 -714h-209zM364 761l-144 142h215l89 -142h-160z" />
    <glyph glyph-name="Aacute" unicode="&#xc1;" horiz-adv-x="834" 
d="M529 277l-112 283l-112 -283h224zM639 0l-58 147h-328l-58 -147h-209l314 714h234l314 -714h-209zM310 761l89 142h215l-144 -142h-160z" />
    <glyph glyph-name="Acircumflex" unicode="&#xc2;" horiz-adv-x="834" 
d="M529 277l-112 283l-112 -283h224zM639 0l-58 147h-328l-58 -147h-209l314 714h234l314 -714h-209zM157 761l144 142h232l144 -142h-188l-79 81l-77 -81h-176z" />
    <glyph glyph-name="Atilde" unicode="&#xc3;" horiz-adv-x="834" 
d="M529 277l-112 283l-112 -283h224zM639 0l-58 147h-328l-58 -147h-209l314 714h234l314 -714h-209zM257 765v0h-86q40 138 143 138q25 0 106 -22t112 -22q43 0 49 39h82q-18 -137 -130 -137q-31 0 -120.5 25t-106.5 25q-34 0 -49 -46z" />
    <glyph glyph-name="Adieresis" unicode="&#xc4;" horiz-adv-x="834" 
d="M529 277l-112 283l-112 -283h224zM639 0l-58 147h-328l-58 -147h-209l314 714h234l314 -714h-209zM186 761v118h176v-118h-176zM472 761v118h176v-118h-176z" />
    <glyph glyph-name="Aring" unicode="&#xc5;" horiz-adv-x="834" 
d="M529 277l-112 283l-112 -283h224zM639 0l-58 147h-328l-58 -147h-209l314 714h234l314 -714h-209zM298 857q0 53 37.5 90t89.5 37q53 0 90 -37t37 -90q0 -52 -37 -89.5t-90 -37.5q-52 0 -89.5 37.5t-37.5 89.5zM360 857q0 -27 19 -46t46 -19t46 19t19 46t-19 46t-46 19
t-46 -19t-19 -46z" />
    <glyph glyph-name="AE" unicode="&#xc6;" horiz-adv-x="1148" 
d="M480 584l-153 -294h200v294h-47zM-33 0l395 714h743v-136h-402v-148h388v-130h-388v-164h406v-136h-582v166h-259l-90 -166h-211z" />
    <glyph glyph-name="Ccedilla" unicode="&#xc7;" horiz-adv-x="907" 
d="M671 274h211q-17 -148 -133 -223q-106 -69 -282 -71l-17 -27q20 4 44 4q39 0 66 -19q29 -22 29 -61q0 -50 -50 -73q-37 -17 -92 -17q-83 0 -128 14l17 52q35 -10 81 -10q48 0 48 34q0 31 -35 31q-20 0 -47 -9l-20 18l43 66q-368 22 -368 374q0 377 422 377
q386 0 420 -290h-209q-13 75 -71 116q-54 38 -133 38q-123 0 -180 -84q-43 -63 -43 -157t43 -157q57 -84 180 -84q77 0 130 37q61 41 74 121z" />
    <glyph glyph-name="Egrave" unicode="&#xc8;" 
d="M68 0v714h667v-136h-473v-148h449v-130h-449v-164h477v-136h-671zM336 761l-144 142h215l89 -142h-160z" />
    <glyph glyph-name="Eacute" unicode="&#xc9;" 
d="M68 0v714h667v-136h-473v-148h449v-130h-449v-164h477v-136h-671zM282 761l89 142h215l-144 -142h-160z" />
    <glyph glyph-name="Ecircumflex" unicode="&#xca;" 
d="M68 0v714h667v-136h-473v-148h449v-130h-449v-164h477v-136h-671zM129 761l144 142h232l144 -142h-188l-79 81l-77 -81h-176z" />
    <glyph glyph-name="Edieresis" unicode="&#xcb;" 
d="M68 0v714h667v-136h-473v-148h449v-130h-449v-164h477v-136h-671zM158 761v118h176v-118h-176zM444 761v118h176v-118h-176z" />
    <glyph glyph-name="Igrave" unicode="&#xcc;" horiz-adv-x="330" 
d="M68 0v714h194v-714h-194zM112 761l-144 142h215l89 -142h-160z" />
    <glyph glyph-name="Iacute" unicode="&#xcd;" horiz-adv-x="330" 
d="M68 0v714h194v-714h-194zM58 761l89 142h215l-144 -142h-160z" />
    <glyph glyph-name="Icircumflex" unicode="&#xce;" horiz-adv-x="330" 
d="M68 0v714h194v-714h-194zM-95 761l144 142h232l144 -142h-188l-79 81l-77 -81h-176z" />
    <glyph glyph-name="Idieresis" unicode="&#xcf;" horiz-adv-x="330" 
d="M68 0v714h194v-714h-194zM-66 761v118h176v-118h-176zM220 761v118h176v-118h-176z" />
    <glyph glyph-name="Eth" unicode="&#xd0;" horiz-adv-x="907" 
d="M68 0v306h-68v124h68v284h445q178 0 267 -98q84 -91 84 -259q0 -166 -83 -259q-87 -98 -251 -98h-462zM262 578v-148h166v-124h-166v-170h216q186 0 186 228q0 214 -204 214h-198z" />
    <glyph glyph-name="Ntilde" unicode="&#xd1;" horiz-adv-x="926" 
d="M670 216v498h188v-714h-211l-389 498h-2v-498h-188v714h225l375 -498h2zM303 765v0h-86q40 138 143 138q25 0 106 -22t112 -22q43 0 49 39h82q-18 -137 -130 -137q-31 0 -120.5 25t-106.5 25q-34 0 -49 -46z" />
    <glyph glyph-name="Ograve" unicode="&#xd2;" horiz-adv-x="944" 
d="M28 357q0 151 78 244q110 133 366 133t366 -133q78 -93 78 -244t-78 -244q-110 -133 -366 -133t-366 133q-78 93 -78 244zM234 357q0 -97 53 -162q64 -79 185 -79t185 79q53 65 53 162t-53 162q-64 79 -185 79t-185 -79q-53 -65 -53 -162zM419 761l-144 142h215l89 -142
h-160z" />
    <glyph glyph-name="Oacute" unicode="&#xd3;" horiz-adv-x="944" 
d="M28 357q0 151 78 244q110 133 366 133t366 -133q78 -93 78 -244t-78 -244q-110 -133 -366 -133t-366 133q-78 93 -78 244zM234 357q0 -97 53 -162q64 -79 185 -79t185 79q53 65 53 162t-53 162q-64 79 -185 79t-185 -79q-53 -65 -53 -162zM365 761l89 142h215l-144 -142
h-160z" />
    <glyph glyph-name="Ocircumflex" unicode="&#xd4;" horiz-adv-x="944" 
d="M28 357q0 151 78 244q110 133 366 133t366 -133q78 -93 78 -244t-78 -244q-110 -133 -366 -133t-366 133q-78 93 -78 244zM234 357q0 -97 53 -162q64 -79 185 -79t185 79q53 65 53 162t-53 162q-64 79 -185 79t-185 -79q-53 -65 -53 -162zM212 761l144 142h232l144 -142
h-188l-79 81l-77 -81h-176z" />
    <glyph glyph-name="Otilde" unicode="&#xd5;" horiz-adv-x="944" 
d="M28 357q0 151 78 244q110 133 366 133t366 -133q78 -93 78 -244t-78 -244q-110 -133 -366 -133t-366 133q-78 93 -78 244zM234 357q0 -97 53 -162q64 -79 185 -79t185 79q53 65 53 162t-53 162q-64 79 -185 79t-185 -79q-53 -65 -53 -162zM312 765v0h-86q40 138 143 138
q25 0 106 -22t112 -22q43 0 49 39h82q-18 -137 -130 -137q-31 0 -120.5 25t-106.5 25q-34 0 -49 -46z" />
    <glyph glyph-name="Odieresis" unicode="&#xd6;" horiz-adv-x="944" 
d="M28 357q0 151 78 244q110 133 366 133t366 -133q78 -93 78 -244t-78 -244q-110 -133 -366 -133t-366 133q-78 93 -78 244zM234 357q0 -97 53 -162q64 -79 185 -79t185 79q53 65 53 162t-53 162q-64 79 -185 79t-185 -79q-53 -65 -53 -162zM241 761v118h176v-118h-176z
M527 761v118h176v-118h-176z" />
    <glyph glyph-name="multiply" unicode="&#xd7;" horiz-adv-x="600" 
d="M59 98l156 155l-156 155l86 86l155 -156l155 156l86 -86l-156 -155l156 -155l-86 -86l-155 156l-155 -156z" />
    <glyph glyph-name="Oslash" unicode="&#xd8;" horiz-adv-x="944" 
d="M28 21l91 78q-91 96 -91 258q0 151 78 244q110 133 366 133q190 0 301 -75l100 86l43 -51l-92 -78q92 -94 92 -259q0 -151 -78 -244q-110 -133 -366 -133q-191 0 -301 75l-100 -85zM267 226l369 316q-63 56 -164 56q-121 0 -185 -79q-53 -65 -53 -162q0 -74 33 -131z
M677 489l-369 -316q62 -57 164 -57q121 0 185 79q53 65 53 162q0 73 -33 132z" />
    <glyph glyph-name="Ugrave" unicode="&#xd9;" horiz-adv-x="870" 
d="M60 256v458h194v-410q0 -81 24 -120q40 -68 157 -68t157 68q24 39 24 120v410h194v-458q0 -276 -375 -276t-375 276zM382 761l-144 142h215l89 -142h-160z" />
    <glyph glyph-name="Uacute" unicode="&#xda;" horiz-adv-x="870" 
d="M60 256v458h194v-410q0 -81 24 -120q40 -68 157 -68t157 68q24 39 24 120v410h194v-458q0 -276 -375 -276t-375 276zM328 761l89 142h215l-144 -142h-160z" />
    <glyph glyph-name="Ucircumflex" unicode="&#xdb;" horiz-adv-x="870" 
d="M60 256v458h194v-410q0 -81 24 -120q40 -68 157 -68t157 68q24 39 24 120v410h194v-458q0 -276 -375 -276t-375 276zM175 761l144 142h232l144 -142h-188l-79 81l-77 -81h-176z" />
    <glyph glyph-name="Udieresis" unicode="&#xdc;" horiz-adv-x="870" 
d="M60 256v458h194v-410q0 -81 24 -120q40 -68 157 -68t157 68q24 39 24 120v410h194v-458q0 -276 -375 -276t-375 276zM204 761v118h176v-118h-176zM490 761v118h176v-118h-176z" />
    <glyph glyph-name="Yacute" unicode="&#xdd;" 
d="M292 0v249l-316 465h228l185 -311l185 311h228l-316 -465v-249h-194zM282 761l89 142h215l-144 -142h-160z" />
    <glyph glyph-name="Thorn" unicode="&#xde;" horiz-adv-x="833" 
d="M262 456v-198h208q62 0 88 13q42 21 42 85q0 62 -35 85q-25 15 -77 15h-226zM68 0v714h194v-128h301q127 0 189 -73q48 -58 48 -143q0 -116 -60.5 -179t-176.5 -63h-301v-128h-194z" />
    <glyph glyph-name="germandbls" unicode="&#xdf;" horiz-adv-x="759" 
d="M60 0v489q0 135 85 193q75 52 237 52q306 0 306 -197q0 -54 -35 -91q-28 -29 -64 -38v-2q140 -35 140 -185q0 -120 -86 -180q-76 -53 -212 -53q-52 0 -121 12v124q52 -6 93 -6q144 0 144 115q0 103 -144 103h-78v110h60q115 0 115 80q0 41 -33 62.5t-87 21.5
q-81 0 -112.5 -33.5t-31.5 -109.5v-467h-176z" />
    <glyph glyph-name="agrave" unicode="&#xe0;" horiz-adv-x="741" 
d="M515 217v44q-35 -17 -104 -23l-102 -9q-49 -4 -71 -19.5t-22 -50.5t30.5 -55t80.5 -20q74 0 127 33q61 37 61 100zM232 372h-170q14 111 112 154q70 30 205 30q175 0 248 -53q58 -43 58 -129v-266q0 -63 20 -108h-176q-11 34 -12 57q-77 -77 -251 -77q-238 0 -238 174
q0 150 222 165l187 13q42 3 57 14t15 42q0 64 -138 64q-63 0 -88 -12q-34 -16 -51 -68zM318 603l-144 142h215l89 -142h-160z" />
    <glyph glyph-name="aacute" unicode="&#xe1;" horiz-adv-x="741" 
d="M515 217v44q-35 -17 -104 -23l-102 -9q-49 -4 -71 -19.5t-22 -50.5t30.5 -55t80.5 -20q74 0 127 33q61 37 61 100zM232 372h-170q14 111 112 154q70 30 205 30q175 0 248 -53q58 -43 58 -129v-266q0 -63 20 -108h-176q-11 34 -12 57q-77 -77 -251 -77q-238 0 -238 174
q0 150 222 165l187 13q42 3 57 14t15 42q0 64 -138 64q-63 0 -88 -12q-34 -16 -51 -68zM264 603l89 142h215l-144 -142h-160z" />
    <glyph glyph-name="acircumflex" unicode="&#xe2;" horiz-adv-x="741" 
d="M515 217v44q-35 -17 -104 -23l-102 -9q-49 -4 -71 -19.5t-22 -50.5t30.5 -55t80.5 -20q74 0 127 33q61 37 61 100zM232 372h-170q14 111 112 154q70 30 205 30q175 0 248 -53q58 -43 58 -129v-266q0 -63 20 -108h-176q-11 34 -12 57q-77 -77 -251 -77q-238 0 -238 174
q0 150 222 165l187 13q42 3 57 14t15 42q0 64 -138 64q-63 0 -88 -12q-34 -16 -51 -68zM111 603l144 142h232l144 -142h-188l-79 81l-77 -81h-176z" />
    <glyph glyph-name="atilde" unicode="&#xe3;" horiz-adv-x="741" 
d="M515 217v44q-35 -17 -104 -23l-102 -9q-49 -4 -71 -19.5t-22 -50.5t30.5 -55t80.5 -20q74 0 127 33q61 37 61 100zM232 372h-170q14 111 112 154q70 30 205 30q175 0 248 -53q58 -43 58 -129v-266q0 -63 20 -108h-176q-11 34 -12 57q-77 -77 -251 -77q-238 0 -238 174
q0 150 222 165l187 13q42 3 57 14t15 42q0 64 -138 64q-63 0 -88 -12q-34 -16 -51 -68zM211 607v0h-86q40 138 143 138q25 0 106 -22t112 -22q43 0 49 39h82q-18 -137 -130 -137q-31 0 -120.5 25t-106.5 25q-34 0 -49 -46z" />
    <glyph glyph-name="adieresis" unicode="&#xe4;" horiz-adv-x="741" 
d="M515 217v44q-35 -17 -104 -23l-102 -9q-49 -4 -71 -19.5t-22 -50.5t30.5 -55t80.5 -20q74 0 127 33q61 37 61 100zM232 372h-170q14 111 112 154q70 30 205 30q175 0 248 -53q58 -43 58 -129v-266q0 -63 20 -108h-176q-11 34 -12 57q-77 -77 -251 -77q-238 0 -238 174
q0 150 222 165l187 13q42 3 57 14t15 42q0 64 -138 64q-63 0 -88 -12q-34 -16 -51 -68zM140 603v118h176v-118h-176zM426 603v118h176v-118h-176z" />
    <glyph glyph-name="aring" unicode="&#xe5;" horiz-adv-x="741" 
d="M515 217v44q-35 -17 -104 -23l-102 -9q-49 -4 -71 -19.5t-22 -50.5t30.5 -55t80.5 -20q74 0 127 33q61 37 61 100zM232 372h-170q14 111 112 154q70 30 205 30q175 0 248 -53q58 -43 58 -129v-266q0 -63 20 -108h-176q-11 34 -12 57q-77 -77 -251 -77q-238 0 -238 174
q0 150 222 165l187 13q42 3 57 14t15 42q0 64 -138 64q-63 0 -88 -12q-34 -16 -51 -68zM252 709q0 53 37.5 90t89.5 37q53 0 90 -37t37 -90q0 -52 -37 -89.5t-90 -37.5q-52 0 -89.5 37.5t-37.5 89.5zM314 709q0 -27 19 -46t46 -19t46 19t19 46t-19 46t-46 19t-46 -19
t-19 -46z" />
    <glyph glyph-name="ae" unicode="&#xe6;" horiz-adv-x="1148" 
d="M493 226v26q-42 -13 -186 -25q-95 -8 -95 -70q0 -67 110 -67q78 0 124.5 35t46.5 101zM230 368h-170q27 188 304 188q147 0 226 -70q68 70 210 70q145 0 234 -85q84 -81 84 -199q0 -34 -2 -51h-475q1 -64 47 -98q43 -33 118 -33q46 0 74.5 14t54.5 51h176
q-79 -175 -301 -175q-96 0 -159 28q-46 21 -90 66q-65 -53 -136 -74q-65 -20 -158 -20q-106 0 -167 39q-70 44 -70 134q0 146 206 160l179 12q49 3 65 15q13 9 13 34q0 46 -45 62q-28 10 -84 10q-67 0 -95 -16t-39 -62zM641 319h307q-19 127 -154 127q-131 0 -153 -127z" />
    <glyph glyph-name="ccedilla" unicode="&#xe7;" horiz-adv-x="741" 
d="M535 213h182q-22 -130 -114 -185q-77 -46 -219 -48l-17 -27q20 4 44 4q39 0 66 -19q29 -22 29 -61q0 -50 -50 -73q-37 -17 -92 -17q-83 0 -128 14l17 52q35 -10 81 -10q48 0 48 34q0 31 -35 31q-20 0 -47 -9l-20 18l42 66q-287 21 -287 285q0 146 98 220q90 68 256 68
q287 0 328 -218h-182q-28 94 -146 94q-82 0 -127 -42.5t-45 -121.5t45 -121.5t127 -42.5q59 0 99 29.5t47 79.5z" />
    <glyph glyph-name="egrave" unicode="&#xe8;" horiz-adv-x="758" 
d="M530 160h188q-72 -180 -334 -180q-166 0 -256 68q-98 74 -98 220t98 220q90 68 256 68q171 0 259 -84q85 -81 85 -235v-16h-516v-2q0 -46 41 -84q49 -45 131 -45q108 0 146 70zM212 325h334v2q0 35 -35 70q-47 49 -131 49q-88 0 -136 -55q-32 -36 -32 -64v-2zM326 603
l-144 142h215l89 -142h-160z" />
    <glyph glyph-name="eacute" unicode="&#xe9;" horiz-adv-x="758" 
d="M530 160h188q-72 -180 -334 -180q-166 0 -256 68q-98 74 -98 220t98 220q90 68 256 68q171 0 259 -84q85 -81 85 -235v-16h-516v-2q0 -46 41 -84q49 -45 131 -45q108 0 146 70zM212 325h334v2q0 35 -35 70q-47 49 -131 49q-88 0 -136 -55q-32 -36 -32 -64v-2zM272 603
l89 142h215l-144 -142h-160z" />
    <glyph glyph-name="ecircumflex" unicode="&#xea;" horiz-adv-x="758" 
d="M530 160h188q-72 -180 -334 -180q-166 0 -256 68q-98 74 -98 220t98 220q90 68 256 68q171 0 259 -84q85 -81 85 -235v-16h-516v-2q0 -46 41 -84q49 -45 131 -45q108 0 146 70zM212 325h334v2q0 35 -35 70q-47 49 -131 49q-88 0 -136 -55q-32 -36 -32 -64v-2zM119 603
l144 142h232l144 -142h-188l-79 81l-77 -81h-176z" />
    <glyph glyph-name="edieresis" unicode="&#xeb;" horiz-adv-x="758" 
d="M530 160h188q-72 -180 -334 -180q-166 0 -256 68q-98 74 -98 220t98 220q90 68 256 68q171 0 259 -84q85 -81 85 -235v-16h-516v-2q0 -46 41 -84q49 -45 131 -45q108 0 146 70zM212 325h334v2q0 35 -35 70q-47 49 -131 49q-88 0 -136 -55q-32 -36 -32 -64v-2zM148 603
v118h176v-118h-176zM434 603v118h176v-118h-176z" />
    <glyph glyph-name="igrave" unicode="&#xec;" horiz-adv-x="296" 
d="M60 0v536h176v-536h-176zM95 603l-144 142h215l89 -142h-160z" />
    <glyph glyph-name="iacute" unicode="&#xed;" horiz-adv-x="296" 
d="M60 0v536h176v-536h-176zM41 603l89 142h215l-144 -142h-160z" />
    <glyph glyph-name="icircumflex" unicode="&#xee;" horiz-adv-x="296" 
d="M60 0v536h176v-536h-176zM-112 603l144 142h232l144 -142h-188l-79 81l-77 -81h-176z" />
    <glyph glyph-name="idieresis" unicode="&#xef;" horiz-adv-x="296" 
d="M60 0v536h176v-536h-176zM-83 603v118h176v-118h-176zM203 603v118h176v-118h-176z" />
    <glyph glyph-name="eth" unicode="&#xf0;" 
d="M217 253q0 -68 45.5 -108.5t126.5 -40.5t126.5 40.5t45.5 108.5q0 70 -45 108.5t-127 38.5t-127 -38.5t-45 -108.5zM422 717l114 52l67 -41l-113 -52q247 -145 247 -382q0 -142 -76 -221q-88 -93 -272 -93q-165 0 -256 67q-98 72 -98 211q0 124 100 199q90 67 216 67
q98 0 154 -51h2q-69 93 -168 134l-129 -59l-62 44l112 52q-42 20 -106 34l98 93q87 -19 170 -54z" />
    <glyph glyph-name="ntilde" unicode="&#xf1;" horiz-adv-x="741" 
d="M505 0v304q0 110 -118 110q-151 0 -151 -155v-259h-176v536h170v-78h2q26 37 83 63q63 29 136 29q89 0 149 -37q81 -50 81 -156v-357h-176zM211 607v0h-86q40 138 143 138q25 0 106 -22t112 -22q43 0 49 39h82q-18 -137 -130 -137q-31 0 -120.5 25t-106.5 25
q-34 0 -49 -46z" />
    <glyph glyph-name="ograve" unicode="&#xf2;" 
d="M35 268q0 146 98 220q90 68 256 68t257 -68q97 -74 97 -220t-97 -220q-91 -68 -257 -68t-256 68q-98 74 -98 220zM217 268q0 -79 45 -121.5t127 -42.5t127 42.5t45 121.5t-45 121.5t-127 42.5t-127 -42.5t-45 -121.5zM336 603l-144 142h215l89 -142h-160z" />
    <glyph glyph-name="oacute" unicode="&#xf3;" 
d="M35 268q0 146 98 220q90 68 256 68t257 -68q97 -74 97 -220t-97 -220q-91 -68 -257 -68t-256 68q-98 74 -98 220zM217 268q0 -79 45 -121.5t127 -42.5t127 42.5t45 121.5t-45 121.5t-127 42.5t-127 -42.5t-45 -121.5zM282 603l89 142h215l-144 -142h-160z" />
    <glyph glyph-name="ocircumflex" unicode="&#xf4;" 
d="M35 268q0 146 98 220q90 68 256 68t257 -68q97 -74 97 -220t-97 -220q-91 -68 -257 -68t-256 68q-98 74 -98 220zM217 268q0 -79 45 -121.5t127 -42.5t127 42.5t45 121.5t-45 121.5t-127 42.5t-127 -42.5t-45 -121.5zM129 603l144 142h232l144 -142h-188l-79 81l-77 -81
h-176z" />
    <glyph glyph-name="otilde" unicode="&#xf5;" 
d="M35 268q0 146 98 220q90 68 256 68t257 -68q97 -74 97 -220t-97 -220q-91 -68 -257 -68t-256 68q-98 74 -98 220zM217 268q0 -79 45 -121.5t127 -42.5t127 42.5t45 121.5t-45 121.5t-127 42.5t-127 -42.5t-45 -121.5zM229 607v0h-86q40 138 143 138q25 0 106 -22t112 -22
q43 0 49 39h82q-18 -137 -130 -137q-31 0 -120.5 25t-106.5 25q-34 0 -49 -46z" />
    <glyph glyph-name="odieresis" unicode="&#xf6;" 
d="M35 268q0 146 98 220q90 68 256 68t257 -68q97 -74 97 -220t-97 -220q-91 -68 -257 -68t-256 68q-98 74 -98 220zM217 268q0 -79 45 -121.5t127 -42.5t127 42.5t45 121.5t-45 121.5t-127 42.5t-127 -42.5t-45 -121.5zM158 603v118h176v-118h-176zM444 603v118h176v-118
h-176z" />
    <glyph glyph-name="divide" unicode="&#xf7;" horiz-adv-x="600" 
d="M47 191v124h506v-124h-506zM203 465q0 41 28.5 69t68.5 28q41 0 69 -28t28 -69q0 -40 -28 -68.5t-69 -28.5q-40 0 -68.5 28.5t-28.5 68.5zM203 41q0 41 28.5 69t68.5 28q41 0 69 -28t28 -69q0 -40 -28 -68.5t-69 -28.5q-40 0 -68.5 28.5t-28.5 68.5z" />
    <glyph glyph-name="oslash" unicode="&#xf8;" 
d="M238 180l267 218q-43 34 -116 34q-82 0 -127 -42.5t-45 -121.5q0 -52 21 -88zM542 353l-267 -217q41 -32 114 -32q82 0 127 42.5t45 121.5q0 50 -19 85zM29 10l76 62q-70 72 -70 196q0 146 98 220q90 68 256 68q153 0 239 -57l83 68l38 -45l-74 -61q68 -70 68 -193
q0 -146 -97 -220q-91 -68 -257 -68q-149 0 -237 56l-87 -71z" />
    <glyph glyph-name="ugrave" unicode="&#xf9;" horiz-adv-x="741" 
d="M511 0v72h-2q-26 -37 -83 -63q-63 -29 -136 -29q-89 0 -149 37q-81 50 -81 156v363h176v-310q0 -110 120 -110q149 0 149 152v268h176v-536h-170zM318 603l-144 142h215l89 -142h-160z" />
    <glyph glyph-name="uacute" unicode="&#xfa;" horiz-adv-x="741" 
d="M511 0v72h-2q-26 -37 -83 -63q-63 -29 -136 -29q-89 0 -149 37q-81 50 -81 156v363h176v-310q0 -110 120 -110q149 0 149 152v268h176v-536h-170zM264 603l89 142h215l-144 -142h-160z" />
    <glyph glyph-name="ucircumflex" unicode="&#xfb;" horiz-adv-x="741" 
d="M511 0v72h-2q-26 -37 -83 -63q-63 -29 -136 -29q-89 0 -149 37q-81 50 -81 156v363h176v-310q0 -110 120 -110q149 0 149 152v268h176v-536h-170zM111 603l144 142h232l144 -142h-188l-79 81l-77 -81h-176z" />
    <glyph glyph-name="udieresis" unicode="&#xfc;" horiz-adv-x="741" 
d="M511 0v72h-2q-26 -37 -83 -63q-63 -29 -136 -29q-89 0 -149 37q-81 50 -81 156v363h176v-310q0 -110 120 -110q149 0 149 152v268h176v-536h-170zM140 603v118h176v-118h-176zM426 603v118h176v-118h-176z" />
    <glyph glyph-name="yacute" unicode="&#xfd;" horiz-adv-x="648" 
d="M476 536h188l-293 -624q-31 -66 -71.5 -88.5t-116.5 -22.5q-42 0 -124 4v124q50 -4 76 -4q58 0 83 55l18 39l-252 517h191l153 -354zM217 603l89 142h215l-144 -142h-160z" />
    <glyph glyph-name="thorn" unicode="&#xfe;" 
d="M230 265q0 -73 50 -116q45 -39 115 -39q71 0 116 39q50 43 50 116t-50 116q-45 39 -116 39q-70 0 -115 -39q-50 -43 -50 -116zM60 -199v925h176v-263h2q66 87 194 87q137 0 221 -70q90 -76 90 -212q0 -129 -85 -208.5t-214 -79.5q-149 0 -206 80h-2v-259h-176z" />
    <glyph glyph-name="ydieresis" unicode="&#xff;" horiz-adv-x="648" 
d="M476 536h188l-293 -624q-31 -66 -71.5 -88.5t-116.5 -22.5q-42 0 -124 4v124q50 -4 76 -4q58 0 83 55l18 39l-252 517h191l153 -354zM93 603v118h176v-118h-176zM379 603v118h176v-118h-176z" />
    <glyph glyph-name="FL1" unicode="&#xe000;" horiz-adv-x="0" 
 />
    <glyph glyph-name="FL2" unicode="&#xe001;" horiz-adv-x="370" 
 />
    <glyph glyph-name="hyphen" horiz-adv-x="481" 
d="M62 218v136h357v-136h-357z" />
    <glyph glyph-name="FL4" unicode="&#xe002;" horiz-adv-x="370" 
 />
    <glyph glyph-name="fraction" unicode="&#xe003;" horiz-adv-x="167" 
d="M-145 -20l362 734h95l-362 -734h-95z" />
    <glyph glyph-name="fi" unicode="&#xe004;" horiz-adv-x="722" 
d="M486 0v536h176v-536h-176zM486 602v124h176v-124h-176zM117 0v418h-111v118h111v27q0 106 43 140q40 31 165 31q25 0 111 -2v-110q-60 2 -89 2q-27 0 -39 -9q-15 -12 -15 -46v-33h141v-118h-141v-418h-176z" />
    <glyph glyph-name="fl" unicode="&#xe005;" horiz-adv-x="722" 
d="M486 0v726h176v-726h-176zM117 0v418h-111v118h111v27q0 106 43 140q40 31 165 31q25 0 111 -2v-110q-60 2 -89 2q-27 0 -39 -9q-15 -12 -15 -46v-33h141v-118h-141v-418h-176z" />
    <glyph glyph-name="Lslash" unicode="&#xe006;" horiz-adv-x="722" 
d="M68 0v205l-68 -44v136l68 44v373h194v-246l154 100v-136l-154 -100v-190h435v-142h-629z" />
    <glyph glyph-name="lslash" unicode="&#xe007;" horiz-adv-x="296" 
d="M60 0v239l-60 -46v124l60 46v363h176v-246l60 42v-124l-60 -42v-356h-176z" />
    <glyph glyph-name="zcaron" unicode="&#xe008;" horiz-adv-x="648" 
d="M26 0v110l339 296h-320v130h565v-110l-339 -296h351v-130h-596zM584 745l-144 -142h-232l-144 142h188l79 -81l77 81h176z" />
    <glyph glyph-name="Zcaron" unicode="&#xe009;" horiz-adv-x="759" 
d="M16 0v124l472 454h-440v136h695v-124l-472 -454h472v-136h-727zM640 903l-144 -142h-232l-144 142h188l79 -81l77 81h176z" />
    </font>
</defs>
</svg>
